<svg xmlns="http://www.w3.org/2000/svg" xmlns:xlink="http://www.w3.org/1999/xlink" fill="none" version="1.1" width="20" height="20" viewBox="0 0 20 20"><defs><clipPath id="master_svg0_411_04635"><rect x="0" y="0" width="20" height="20" rx="0"/></clipPath></defs><g clip-path="url(#master_svg0_411_04635)"><g><path d="M3.33333361,2.9169921875L16.666666,2.9169921875C17.126904,2.9169921875,17.5,3.2900880875,17.5,3.7503256175C17.5,4.2105626874999995,17.126904,4.5836587875,16.666666,4.5836587875L3.33333361,4.5836587875C2.87309629,4.5836587875,2.50000038146973,4.2105626874999995,2.50000038146973,3.7503256175C2.50000038146973,3.2900880875,2.87309629,2.9169921875,3.33333361,2.9169921875ZM3.33333361,15.4169931875L16.666666,15.4169931875C17.126903,15.4169931875,17.499999000000003,15.7900881875,17.499999000000003,16.2503251875C17.499999000000003,16.7105631875,17.126903,17.0836591875,16.666666,17.0836591875L3.33333361,17.0836591875C2.87309608,17.0836591875,2.5,16.7105631875,2.5,16.2503251875C2.5,15.7900881875,2.87309608,15.4169931875,3.33333361,15.4169931875ZM9.3330078,9.050781287500001L16.666699,9.0502929875C17.126936999999998,9.0502924875,17.5,9.4234542875,17.5,9.8836912875C17.5,10.3439292875,17.126936999999998,10.7169923875,16.666699,10.7169923875L9.3330078,10.7167968875C8.8730888,10.7163481875,8.500976600000001,10.343708987500001,8.500976600000001,9.8837890875C8.500976600000001,9.4238695875,8.8730893,9.0512313875,9.3330078,9.050781287500001ZM2.675,10.450325987500001C2.441949271,10.1955866875,2.441949271,9.8050651875,2.675,9.5503258875L4.8149998,7.2703256875C4.9235973,7.1523346875,5.0763104000000006,7.0847305875,5.2366664,7.0836586875C5.5658332999999995,7.0836586875,5.8333333,7.3686585875,5.8333333,7.7194914875L5.8333333,12.2811584875C5.834095700000001,12.4479083875,5.7715523,12.6087350875,5.6583333,12.7311582875C5.431957000000001,12.9792431875,5.0413761,12.9792431875,4.8149998,12.7311582875L2.675,10.450325987500001Z" fill="#0A0A28" fill-opacity="1"/></g></g></svg>