<svg xmlns="http://www.w3.org/2000/svg" xmlns:xlink="http://www.w3.org/1999/xlink" fill="none" version="1.1" width="25.3111572265625" height="28" viewBox="0 0 25.3111572265625 28"><defs><linearGradient x1="0.697868824005127" y1="0.8791772127151489" x2="0.3360876553782348" y2="0.1998912006050284" id="master_svg0_411_04374"><stop offset="0%" stop-color="#6B93FF" stop-opacity="1"/><stop offset="99.28571581840515%" stop-color="#584CFF" stop-opacity="1"/></linearGradient></defs><g><path d="M9.6689749,22.687071C6.9107175,20.855827,6.5151668,18.821112,6.8881984,15.938601C7.261229,13.056087,10.419064,10.16086,12.652941,9.7327185C14.886816,9.3045788,18.932634,9.5442171,20.656429,7.8675647C22.380224,6.1909108,23.851591,3.6638024,23.33548,0C22.586199,1.3499727,21.029469,2.5094817,19.944286,3.0181603C18.859106,3.526839,17.938211,3.6161332,16.360516,4.0719528C17.313833,3.5479386,18.045221,2.6112175,18.045221,1.8651553C16.790482,2.9842484,15.013845,3.1016381,12.652941,3.4251008C9.1115828,3.9102945,5.4638934,4.5467134,2.9883249,7.8675647C0.5127579,11.188415,0.74424028,16.267443,2.3439965,18.95676C3.4104998,20.749638,5.904748,22.687071,9.6689749,22.687071ZM12.653252,10.784103C10.008123,11.564078,8.7520704,13.522507,8.1768799,15.633508C9.7841845,13.96768,11.561359,13.723965,13.476052,14.124723C16.348091,14.725863,18.315304,17.631697,17.577032,22.154526C17.084852,25.169748,15.927261,27.118227,14.104261,27.99996C17.597179,27.453514,20.502783,25.605112,22.4284,23.230206C24.354017,20.855297,24.516451,19.90641,24.895452,18.753407C25.274452,17.600399,25.375261,15.682203,25.274452,12.784906C24.963278,13.56488,24.187529,14.532306,23.199858,15.110953C24.620068,12.513612,24.895452,11.258871,24.895452,9.4615393C24.895452,7.6642075,24.494289,6.5451145,23.810272,4.5443115C23.199858,6.7824979,21.84338,8.8172131,19.503458,9.7667465C17.163536,10.71628,15.298382,10.004129,12.653252,10.784103ZM0.58060533,12.750977C0.56790006,12.844151,0.55254459,12.941557,0.53612638,13.045704C0.42108113,13.775481,0.25385365,14.836272,0.58060902,17.091702C0.953996,19.669006,2.8866234,21.970182,4.989141,22.922134C7.0916591,23.874084,10.372892,24.473352,13.122706,23.286289Q15.872518,22.099228,16.054916,18.282421C16.085293,18.461498,16.115143,18.626169,16.14352,18.782707C16.302002,19.656981,16.414499,20.277567,16.31572,21.737633C16.199253,23.459133,15.06416,26.071186,13.319437,26.947386C11.574714,27.823584,9.4319849,28.113447,6.6952162,27.399832C4.8707018,26.924084,3.0699911,25.386295,1.293097,22.922129C1.9318693,23.568472,2.6933429,24.000278,3.5775192,24.217541C2.0064383,23.167072,0.76074696,21.510921,0.24739954,19.249115C-0.26594755,16.987312,0.10582255,14.141365,0.58060533,12.750977Z" fill-rule="evenodd" fill="url(#master_svg0_411_04374)" fill-opacity="1"/></g></svg>